<svg version="1.1" width="66.91106641292572" height="45.890016913414" viewBox="-1.378468930721283 -0.6760589480400085 66.91106641292572 45.890016913414" xmlns="http://www.w3.org/2000/svg" xmlns:xlink="http://www.w3.org/1999/xlink">
  <!-- Exported by Scratch - http://scratch.mit.edu/ -->
  <g id="ID0.8690694565884769">
    <g id="ID0.4354011248797178">
      <path id="ID0.8237681062892079" fill="none" stroke="#000000" stroke-width="5.8423179388046265" stroke-linecap="round" d="M 32.6525 7.7258 C 32.6525 7.7258 41.3289 9.0125 44.0937 11.9858 C 47.1887 15.351 48.9847 20.2551 48.9623 24.8267 C 48.9404 29.3209 47.0052 34.0118 43.8435 37.174 C 40.6813 40.3356 36.3152 42.2928 31.4962 42.2928 C 26.6773 42.2928 22.3963 40.2173 19.149 37.174 C 16.2565 34.4617 14.2736 26.4699 14.2736 26.4699 "/>
      <path id="ID0.09343133540824056" fill="none" stroke="#000000" stroke-width="4.868598282337189" stroke-linecap="round" d="M 35.5722 15.2473 C 35.5722 15.2473 30.6515 11.7535 29.243 9.2832 C 28.6359 8.2189 28.6875 6.2798 29.7298 5.6318 C 32.8647 3.6834 40.3191 2.5889 40.3191 2.5889 "/>
    </g>
    <g id="ID0.5984538155607879">
      <path id="ID0.8237681062892079" fill="none" stroke="#FFFFFF" stroke-width="4.38173845410347" stroke-linecap="round" d="M 33.1525 7.3508 C 33.1525 7.3508 41.8289 8.6375 44.5937 11.6108 C 47.6887 14.976 49.4847 19.8801 49.4623 24.4517 C 49.4404 28.9459 47.5052 33.6368 44.3435 36.799 C 41.1813 39.9606 36.8152 41.9178 31.9962 41.9178 C 27.1773 41.9178 22.8963 39.8423 19.649 36.799 C 16.7565 34.0867 14.7736 26.0949 14.7736 26.0949 "/>
      <path id="ID0.09343133540824056" fill="none" stroke="#FFFFFF" stroke-width="4.38173845410347" stroke-linecap="round" d="M 36.0722 14.9035 C 36.0722 14.9035 31.1515 11.4098 29.743 8.9395 C 29.1359 7.8752 29.1875 5.936 30.2298 5.288 C 33.3647 3.3396 40.8191 2.2451 40.8191 2.2451 "/>
    </g>
    <g id="ID0.5984538155607879">
      <path id="ID0.8237681062892079" fill="none" stroke="#666666" stroke-width="4.38173845410347" stroke-linecap="round" d="M 32.7775 7.7258 C 32.7775 7.7258 41.4539 9.0125 44.2187 11.9858 C 47.3137 15.351 49.1097 20.2551 49.0873 24.8267 C 49.0654 29.3209 47.1302 34.0118 43.9685 37.174 C 40.8063 40.3356 36.4402 42.2928 31.6212 42.2928 C 26.8023 42.2928 22.5213 40.2173 19.274 37.174 C 16.3815 34.4617 14.3986 26.4699 14.3986 26.4699 "/>
      <path id="ID0.09343133540824056" fill="none" stroke="#666666" stroke-width="4.38173845410347" stroke-linecap="round" d="M 35.6972 15.2473 C 35.6972 15.2473 30.7765 11.7535 29.368 9.2832 C 28.7609 8.2189 28.8125 6.2798 29.8548 5.6318 C 32.9897 3.6834 40.4441 2.5889 40.4441 2.5889 "/>
    </g>
  </g>
  <g id="ID0.5878586946055293">
    <text id="ID0.1627820571884513" fill="#000000" text-anchor="start" font-family="Serif" font-size="22" transform="matrix(0.571343, 0, 0, 0.571343, 1.54269, 10.4584)" stroke-width="1" alignment-baseline="text-before-edge" xml:space="preserve"><tspan x="0" style="white-space: pre" dy="1.25em">Try again</tspan></text>
    <text id="ID0.1627820571884513" fill="#000000" text-anchor="start" font-family="Serif" font-size="22" transform="matrix(0.571343, 0, 0, 0.571343, 2.01144, 10.4584)" stroke-width="1" alignment-baseline="text-before-edge" xml:space="preserve"><tspan x="0" style="white-space: pre" dy="1.25em">Try again</tspan></text>
    <text id="ID0.1627820571884513" fill="#FFFFFF" text-anchor="start" font-family="Serif" font-size="22" transform="matrix(0.571343, 0, 0, 0.571343, 1.73019, 9.83338)" stroke-width="1" alignment-baseline="text-before-edge" xml:space="preserve"><tspan x="0" style="white-space: pre" dy="1.25em">Try again</tspan></text>
  </g>
</svg>