<svg version="1.1" width="72.86373198269546" height="23.056145312773587" viewBox="0.6747363197866081 0.8853635180059074 72.86373198269546 23.056145312773587" xmlns="http://www.w3.org/2000/svg" xmlns:xlink="http://www.w3.org/1999/xlink">
  <defs>
    <linearGradient id="grad_1" x2="1">
      <stop offset="0" stop-color="#000000" stop-opacity="0"/>
      <stop offset="1" stop-color="#000000" stop-opacity="0"/>
    </linearGradient>
  </defs>
  <!-- Exported by Scratch - http://scratch.mit.edu/ -->
  <path id="ID0.7005448970012367" fill="#000000" stroke="url(#grad_1)" stroke-width="2.000000598418117" stroke-linecap="round" d="M 13.1628 2.6743 C 18.7058 1.8032 24.4242 1.5459 30.0117 2.4555 C 35.299 3.4693 39.6964 7.7724 45.2536 8.3482 C 52.4141 9.0907 59.6987 5.1813 66.7908 6.4463 C 69.6885 6.9639 72.6081 10.1634 72.5372 13.006 C 72.4055 16.038 69.2249 19.0855 66.3328 19.4999 C 59.4493 20.4524 52.5515 16.384 45.5646 16.9962 C 39.6941 17.5096 34.6585 21.8433 28.9045 22.7138 C 23.3249 23.3502 17.6592 22.5661 12.1951 21.4316 C 8.843 20.7342 5.3598 19.7208 2.8174 17.5477 C 1.4726 16.2941 1.6489 13.9298 1.7297 12.2052 C 1.8212 10.2865 1.7472 7.873 3.2906 6.644 C 5.9585 4.3622 9.5887 3.2365 13.1628 2.6743 Z "/>
</svg>