<svg version="1.1" width="20.47879981994629" height="20.66910171508789" viewBox="-0.4787999987602234 0.04999995231628418 20.47879981994629 20.66910171508789" xmlns="http://www.w3.org/2000/svg" xmlns:xlink="http://www.w3.org/1999/xlink">
  <defs>
    <radialGradient id="grad_1" cx="0.5092" cy="0.496" r="0.66196">
      <stop offset="0" stop-color="#000000" stop-opacity="1"/>
      <stop offset="1" stop-color="#000000" stop-opacity="0"/>
    </radialGradient>
  <radialGradient id="grad_1-.8700265288352966,0,0,0.8700265288352966,-203.5,-147.5" cx="8.8721" cy="11.4535" r="10.8561" gradientUnits="userSpaceOnUse">
      <stop offset="0" stop-color="#000000" stop-opacity="1"/>
      <stop offset="1" stop-color="#000000" stop-opacity="0"/>
    </radialGradient></defs>
  <!-- Exported by Scratch - http://scratch.mit.edu/ -->
  <path id="ID0.06281133461743593" fill="url(#grad_1-.8700265288352966,0,0,0.8700265288352966,-203.5,-147.5)" stroke="none" d="M 8.7212 3.3191 C 10.9833 3.3191 13.0339 4.2378 14.5182 5.7221 C 16.0025 7.2064 16.9212 9.257 16.9212 11.5191 C 16.9212 13.7812 16.0025 15.8318 14.5182 17.3161 C 13.0339 18.8004 10.9833 19.7191 8.7212 19.7191 C 6.4592 19.7191 4.4085 18.8004 2.9242 17.3161 C 1.44 15.8318 0.5212 13.7812 0.5212 11.5191 C 0.5212 9.257 1.44 7.2064 2.9242 5.7221 C 4.4085 4.2378 6.4592 3.3191 8.7212 3.3191 Z " stroke-width="0.8700265288352966"/>
  <path id="ID0.5447817472741008" fill="#FF0000" stroke="#990000" stroke-width="2" d="M 11.025 1.05 C 13.225 1.05 15.219 1.944 16.663 3.387 C 18.106 4.831 19 6.825 19 9.025 C 19 11.225 18.106 13.219 16.663 14.663 C 15.219 16.106 13.225 17 11.025 17 C 8.825 17 6.831 16.106 5.387 14.663 C 3.944 13.219 3.05 11.225 3.05 9.025 C 3.05 6.825 3.944 4.831 5.387 3.387 C 6.831 1.944 8.825 1.05 11.025 1.05 Z "/>
  <path id="ID0.9137064320966601" fill="#FFFFFF" stroke="none" d="M 14.5242 2.8099 C 15.246 3.2156 15.8258 3.7147 16.1791 4.1944 C 16.5328 4.6732 16.6601 5.1324 16.4778 5.4567 C 16.2956 5.781 15.837 5.911 15.2441 5.8576 C 14.6507 5.8051 13.923 5.5693 13.2012 5.1635 C 12.4794 4.7578 11.8996 4.2587 11.5463 3.779 C 11.1925 3.3003 11.0652 2.841 11.2475 2.5167 C 11.4298 2.1924 11.8883 2.0624 12.4812 2.1158 C 13.0746 2.1683 13.8024 2.4042 14.5242 2.8099 Z " stroke-width="0.9999999796261998"/>
</svg>