<svg version="1.1" width="29.230224609375" height="71.69999694824219" viewBox="0.38071703910827637 0.1499999761581421 29.230224609375 71.69999694824219" xmlns="http://www.w3.org/2000/svg" xmlns:xlink="http://www.w3.org/1999/xlink">
  <defs>
    <radialGradient id="grad_1" cx="0.7153" cy="0.2" r="1.04">
      <stop offset="0" stop-color="#B2B2B2" stop-opacity="1"/>
      <stop offset="1" stop-color="#666666" stop-opacity="1"/>
    </radialGradient>
  <radialGradient id="grad_1-,0,0,1,-225,-137" cx="20.9985" cy="48.85" r="28.1871" gradientUnits="userSpaceOnUse">
      <stop offset="0" stop-color="#B2B2B2" stop-opacity="1"/>
      <stop offset="1" stop-color="#666666" stop-opacity="1"/>
    </radialGradient></defs>
  <!-- Exported by Scratch - http://scratch.mit.edu/ -->
  <path id="ID0.700744557660073" fill="url(#grad_1-,0,0,1,-225,-137)" stroke="none" stroke-linecap="round" d="M 1.9 43.35 L 28.6 43.35 L 27.4 62.5 L 21 69.65 L 13.75 70.85 L 7.25 68.85 L 2.4 62.15 L 1.9 43.35 Z " stroke-width="1"/>
  <path id="ID0.6278981110081077" fill="#FFFFFF" stroke="none" stroke-linecap="round" d="M 3.45 36.5 L 7.55 31.75 L 14.85 31.35 L 14.85 43.65 L 2.35 43.65 L 3.45 36.5 Z " stroke-width="1"/>
  <path id="ID0.6278981110081077" fill="#B2B2B2" stroke="none" stroke-linecap="round" d="M 26.8 36.5 L 22.7 31.75 L 15.4 31.35 L 15.4 43.65 L 27.9 43.65 L 26.8 36.5 Z " stroke-width="1"/>
  <path id="ID0.3125268742442131" fill="none" stroke="#000000" stroke-width="2" stroke-linecap="round" d="M 15 31.5 L 15 43.35 "/>
  <path id="ID0.999148540198803" fill="none" stroke="#000000" stroke-width="2" stroke-linecap="round" d="M 2.9 43 L 14.9 43.85 L 27.6 43 "/>
  <path id="ID0.11473002843558788" fill="none" stroke="#000000" stroke-width="2" stroke-linecap="round" d="M 7.05 32.25 C 9.428 30.974 12.303 30.665 15 30.7 C 17.696 30.735 20.577 31.144 23 32.4 C 24.831 33.385 26.866 34.96 27.15 37.1 C 28.282 45.65 29.869 54.852 26.95 63 C 25.352 67.46 19.786 70.846 15.05 70.8 C 10.209 70.753 4.582 67.427 2.95 62.9 C 0.046 54.846 1.846 45.647 3 37.15 C 3.292 35 5.185 33.251 7.05 32.25 Z "/>
  <path id="ID0.04779253574088216" fill="none" stroke="#000000" stroke-width="2" stroke-linecap="round" d="M 14.9 29.85 C 14.9 29.85 12.567 22.407 13 18.65 C 13.34 15.694 17.301 13.81 17.4 10.85 C 17.301 7.31 13 1.15 13 1.15 "/>
</svg>