<svg version="1.1" width="20.428800582885742" height="20.66910171508789" viewBox="-0.4288003444671631 0.04999995231628418 20.428800582885742 20.66910171508789" xmlns="http://www.w3.org/2000/svg" xmlns:xlink="http://www.w3.org/1999/xlink">
  <defs>
    <radialGradient id="grad_1" cx="0.5092" cy="0.496" r="0.66196">
      <stop offset="0" stop-color="#000000" stop-opacity="1"/>
      <stop offset="1" stop-color="#000000" stop-opacity="0"/>
    </radialGradient>
  <radialGradient id="grad_1-.8700265288352966,0,0,0.8700265288352966,-203.45,-147.5" cx="8.9221" cy="11.4535" r="10.8561" gradientUnits="userSpaceOnUse">
      <stop offset="0" stop-color="#000000" stop-opacity="1"/>
      <stop offset="1" stop-color="#000000" stop-opacity="0"/>
    </radialGradient></defs>
  <!-- Exported by Scratch - http://scratch.mit.edu/ -->
  <path id="ID0.06281133461743593" fill="url(#grad_1-.8700265288352966,0,0,0.8700265288352966,-203.45,-147.5)" stroke="none" d="M 8.7712 3.3191 C 11.0333 3.3191 13.0839 4.2378 14.5682 5.7221 C 16.0525 7.2064 16.9712 9.257 16.9712 11.5191 C 16.9712 13.7812 16.0525 15.8318 14.5682 17.3161 C 13.0839 18.8004 11.0333 19.7191 8.7712 19.7191 C 6.5092 19.7191 4.4585 18.8004 2.9742 17.3161 C 1.49 15.8318 0.5712 13.7812 0.5712 11.5191 C 0.5712 9.257 1.49 7.2064 2.9742 5.7221 C 4.4585 4.2378 6.5092 3.3191 8.7712 3.3191 Z " stroke-width="0.8700265288352966"/>
  <path id="ID0.5447817472741008" fill="#00FF55" stroke="#00CC44" stroke-width="2" d="M 11.025 1.05 C 13.225 1.05 15.219 1.944 16.663 3.387 C 18.106 4.831 19 6.825 19 9.025 C 19 11.225 18.106 13.219 16.663 14.663 C 15.219 16.106 13.225 17 11.025 17 C 8.825 17 6.831 16.106 5.387 14.663 C 3.944 13.219 3.05 11.225 3.05 9.025 C 3.05 6.825 3.944 4.831 5.387 3.387 C 6.831 1.944 8.825 1.05 11.025 1.05 Z "/>
  <path id="ID0.9137064320966601" fill="#FFFFFF" stroke="none" d="M 14.4742 2.7599 C 15.196 3.1656 15.7758 3.6647 16.1291 4.1444 C 16.4828 4.6232 16.6101 5.0824 16.4278 5.4067 C 16.2456 5.731 15.787 5.861 15.1941 5.8076 C 14.6007 5.7551 13.873 5.5193 13.1512 5.1135 C 12.4294 4.7078 11.8496 4.2087 11.4963 3.729 C 11.1425 3.2503 11.0152 2.791 11.1975 2.4667 C 11.3798 2.1424 11.8383 2.0124 12.4312 2.0658 C 13.0246 2.1183 13.7524 2.3542 14.4742 2.7599 Z " stroke-width="0.9999999796261998"/>
</svg>