<svg version="1.1" width="47.25" height="47.25" viewBox="0.2999999523162842 0.3500000238418579 47.25 47.25" xmlns="http://www.w3.org/2000/svg" xmlns:xlink="http://www.w3.org/1999/xlink">
  <defs>
    <radialGradient id="grad_1" cx="0.7523000000000001" cy="0.14279999999999998" r="1.11436">
      <stop offset="0" stop-color="#FF0000" stop-opacity="1"/>
      <stop offset="1" stop-color="#660000" stop-opacity="1"/>
    </radialGradient>
  <radialGradient id="grad_1-,0,0,1,-211.45,-156.4" cx="35.3416" cy="7.8117" r="50.4248" gradientUnits="userSpaceOnUse">
      <stop offset="0" stop-color="#FF0000" stop-opacity="1"/>
      <stop offset="1" stop-color="#660000" stop-opacity="1"/>
    </radialGradient></defs>
  <!-- Exported by Scratch - http://scratch.mit.edu/ -->
  <path id="ID0.5324081094004214" fill="url(#grad_1-,0,0,1,-211.45,-156.4)" stroke="#000000" stroke-width="2" d="M 23.925 1.35 C 30.167 1.35 35.823 3.885 39.919 7.981 C 44.015 12.077 46.55 17.733 46.55 23.975 C 46.55 30.217 44.015 35.873 39.919 39.969 C 35.823 44.065 30.167 46.6 23.925 46.6 C 17.683 46.6 12.027 44.065 7.931 39.969 C 3.835 35.873 1.3 30.217 1.3 23.975 C 1.3 17.733 3.835 12.077 7.931 7.981 C 12.027 3.885 17.683 1.35 23.925 1.35 Z "/>
  <path id="ID0.34983337251469493" fill="#000000" stroke="none" d="M 24.35 2.8462 C 25.081 2.8462 25.744 2.9717 26.223 3.1749 C 26.703 3.3775 27 3.6577 27 3.967 C 27 4.2764 26.703 4.5566 26.223 4.7591 C 25.744 4.9624 25.081 5.0879 24.35 5.0879 C 23.619 5.0879 22.956 4.9624 22.477 4.7591 C 21.997 4.5566 21.7 4.2764 21.7 3.967 C 21.7 3.6577 21.997 3.3775 22.477 3.1749 C 22.956 2.9717 23.619 2.8462 24.35 2.8462 Z " stroke-width="0.882719290259188"/>
  <path id="ID0.34983337251469493" fill="#000000" stroke="none" d="M 30.842 3.9156 C 31.5122 4.1758 32.0553 4.5236 32.3897 4.8752 C 32.7254 5.2265 32.8533 5.5818 32.6939 5.8574 C 32.5346 6.133 32.1179 6.2769 31.5736 6.2864 C 31.0298 6.2969 30.3573 6.1727 29.6872 5.9125 C 29.017 5.6523 28.4739 5.3044 28.1395 4.9528 C 27.8038 4.6016 27.6759 4.2462 27.8353 3.9707 C 27.9947 3.6951 28.4113 3.5512 28.9556 3.5417 C 29.4995 3.5311 30.1719 3.6553 30.842 3.9156 Z " stroke-width="0.8787741897574389"/>
  <path id="ID0.34983337251469493" fill="#000000" stroke="none" d="M 26.4779 10.3187 C 27.2002 10.4309 27.8215 10.7511 28.24 11.1782 C 28.6597 11.6042 28.8775 12.1374 28.7941 12.6757 C 28.7106 13.214 28.3415 13.656 27.8125 13.9347 C 27.2844 14.2148 26.5954 14.3315 25.873 14.2193 C 25.1507 14.1072 24.5294 13.787 24.1109 13.3598 C 23.6912 12.9338 23.4734 12.4007 23.5568 11.8624 C 23.6403 11.3241 24.0094 10.8821 24.5383 10.6034 C 25.0665 10.3233 25.7555 10.2066 26.4779 10.3187 Z " stroke-width="1.1685841784876905"/>
  <path id="ID0.2993305171839893" fill="#FFFFFF" stroke="none" stroke-linecap="round" d="M 37.8324 7.7392 C 39.0543 8.809 40.0052 10.1492 41.0795 11.3915 C 41.3065 11.7028 41.809 12.3868 41.6326 12.277 C 41.2862 12.0591 40.5027 11.1389 39.9288 10.58 C 39.0827 9.7553 38.2674 8.8803 37.3942 8.0864 C 36.5637 7.3832 35.6748 6.7617 34.8209 6.0912 C 34.2178 5.6171 33.4199 5.1223 32.9942 4.6857 C 32.8583 4.5449 33.318 4.7292 33.685 4.9599 C 35.0812 5.842 36.579 6.6418 37.8324 7.7392 Z " stroke-width="0.9999999969526687"/>
  <path id="ID0.2993305171839893" fill="#000000" stroke="none" stroke-linecap="round" d="M 9.7427 39.9768 C 8.501 38.8629 7.485 37.5134 6.4205 36.2585 C 6.1544 35.9448 5.691 35.2632 5.8674 35.373 C 6.2138 35.5909 6.9973 36.5111 7.5712 37.07 C 8.4173 37.8947 9.2326 38.7697 10.1058 39.5636 C 10.9363 40.2668 11.8252 40.8883 12.6791 41.5588 C 13.2822 42.0329 14.0801 42.5277 14.5058 42.9643 C 14.6417 43.1051 14.1615 42.9107 13.815 42.6901 C 12.4296 41.8094 10.9814 41.0214 9.7427 39.9768 Z " stroke-width="0.9999999969526687"/>
</svg>