<svg version="1.1" width="481" height="62.79999923706055" viewBox="-0.5 -0.5 481 62.79999923706055" xmlns="http://www.w3.org/2000/svg" xmlns:xlink="http://www.w3.org/1999/xlink">
  <defs>
    <linearGradient id="grad_1" y2="1" x2="0">
      <stop offset="0" stop-color="#CC7700" stop-opacity="1"/>
      <stop offset="1" stop-color="#CC7700" stop-opacity="0"/>
    </linearGradient>
    <linearGradient id="grad_2" y2="1" x2="0">
      <stop offset="0" stop-color="#995900" stop-opacity="0"/>
      <stop offset="1" stop-color="#995900" stop-opacity="1"/>
    </linearGradient>
    <linearGradient id="grad_3" y2="1" x2="0">
      <stop offset="0" stop-color="#FFD499" stop-opacity="0"/>
      <stop offset="1" stop-color="#FFD499" stop-opacity="1"/>
    </linearGradient>
    <linearGradient id="grad_4" y2="1" x2="0">
      <stop offset="0" stop-color="#995900" stop-opacity="0"/>
      <stop offset="1" stop-color="#995900" stop-opacity="1"/>
    </linearGradient>
    <linearGradient id="grad_5" y2="1" x2="0">
      <stop offset="0" stop-color="#FFD499" stop-opacity="0"/>
      <stop offset="1" stop-color="#FFD499" stop-opacity="1"/>
    </linearGradient>
  <linearGradient id="grad_1-,0,0,0.09890110045671463,0,52.8" y2="61.8" x2="0" x1="0" y1="52.8" gradientUnits="userSpaceOnUse">
      <stop offset="0" stop-color="#CC7700" stop-opacity="1"/>
      <stop offset="1" stop-color="#CC7700" stop-opacity="0"/>
    </linearGradient><linearGradient id="grad_2-,0,0,0.11874999850988388,221,42.8" y2="48.5" x2="254" x1="254" y1="43.75" gradientUnits="userSpaceOnUse">
      <stop offset="0" stop-color="#995900" stop-opacity="0"/>
      <stop offset="1" stop-color="#995900" stop-opacity="1"/>
    </linearGradient><linearGradient id="grad_3-,0,0,-0.11874999850988388,221,14.25" y2="8.55" x2="254" x1="254" y1="13.3" gradientUnits="userSpaceOnUse">
      <stop offset="0" stop-color="#FFD499" stop-opacity="0"/>
      <stop offset="1" stop-color="#FFD499" stop-opacity="1"/>
    </linearGradient><linearGradient id="grad_4-,0,0,0.11874999850988388,-3,42.3" y2="48" x2="30" x1="30" y1="43.25" gradientUnits="userSpaceOnUse">
      <stop offset="0" stop-color="#995900" stop-opacity="0"/>
      <stop offset="1" stop-color="#995900" stop-opacity="1"/>
    </linearGradient><linearGradient id="grad_5-,0,0,-0.11874999850988388,-3,13.75" y2="8.05" x2="30" x1="30" y1="12.8" gradientUnits="userSpaceOnUse">
      <stop offset="0" stop-color="#FFD499" stop-opacity="0"/>
      <stop offset="1" stop-color="#FFD499" stop-opacity="1"/>
    </linearGradient></defs>
  <!-- Exported by Scratch - http://scratch.mit.edu/ -->
  <path id="ID0.8098101229406893" fill="#CC7700" stroke="none" d="M 0 0 L 480 0 L 480 53 L 0 53 L 0 0 Z " stroke-width="0.8182940392370326"/>
  <path id="ID0.6416476750746369" fill="#FF9400" stroke="none" d="M 30 8 L 227 8 L 227 48 L 30 48 L 30 8 Z " stroke-width="1"/>
  <path id="ID0.8098101229406893" fill="url(#grad_1-,0,0,0.09890110045671463,0,52.8)" stroke="none" d="M 0 52.8 L 480 52.8 L 480 61.8 L 0 61.8 L 0 52.8 Z " stroke-width="0.710556622540227"/>
  <path id="ID0.6416476750746369" fill="#C36E01" stroke="none" d="M 254 8.5 L 451 8.5 L 451 48.5 L 254 48.5 L 254 8.5 Z " stroke-width="1"/>
  <path id="ID0.6416476750746369" fill="url(#grad_2-,0,0,0.11874999850988388,221,42.8)" stroke="none" d="M 254 43.75 L 451 43.75 L 451 48.5 L 254 48.5 L 254 43.75 Z " stroke-width="0.7120749827602769"/>
  <path id="ID0.6416476750746369" fill="url(#grad_3-,0,0,-0.11874999850988388,221,14.25)" stroke="none" d="M 254 13.3 L 451 13.3 L 451 8.55 L 254 8.55 L 254 13.3 Z " stroke-width="0.7120749827602769"/>
  <text id="ID0.3025762904435396" fill="#FFFFFF" text-anchor="start" font-family="Sans Serif" font-size="22" transform="matrix(0.657005, 0, 0, 0.657005, 34.314, 8.07899)" stroke-width="1" alignment-baseline="text-before-edge" xml:space="preserve"><tspan x="0" style="white-space: pre" dy="1.13em">You</tspan></text>
  <text id="ID0.3025762904435396" fill="#FFFFFF" text-anchor="start" font-family="Sans Serif" font-size="22" transform="matrix(0.657005, 0, 0, 0.624068, 376.664, 8.5778)" stroke-width="1" alignment-baseline="text-before-edge" xml:space="preserve"><tspan x="0" style="white-space: pre" dy="1.13em">Opponent</tspan></text>
  <path id="ID0.6416476750746369" fill="url(#grad_4-,0,0,0.11874999850988388,-3,42.3)" stroke="none" d="M 30 43.25 L 227 43.25 L 227 48 L 30 48 L 30 43.25 Z " stroke-width="0.7120749827602769"/>
  <path id="ID0.6416476750746369" fill="url(#grad_5-,0,0,-0.11874999850988388,-3,13.75)" stroke="none" d="M 30 12.8 L 227 12.8 L 227 8.05 L 30 8.05 L 30 12.8 Z " stroke-width="0.7120749827602769"/>
</svg>