<svg version="1.1" width="72.86373198269546" height="23.056145312773587" viewBox="0.6247361290517448 0.8853635180059074 72.86373198269546 23.056145312773587" xmlns="http://www.w3.org/2000/svg" xmlns:xlink="http://www.w3.org/1999/xlink">
  <defs>
    <linearGradient id="grad_1" y2="1" x2="0">
      <stop offset="0" stop-color="#E5E5E5" stop-opacity="1"/>
      <stop offset="1" stop-color="#CCCCCC" stop-opacity="1"/>
    </linearGradient>
    <linearGradient id="grad_2" y2="1" x2="0">
      <stop offset="0" stop-color="#CCCCCC" stop-opacity="1"/>
      <stop offset="1" stop-color="#B2B2B2" stop-opacity="1"/>
    </linearGradient>
    <linearGradient id="grad_3" y2="1" x2="0">
      <stop offset="0" stop-color="#990000" stop-opacity="1"/>
      <stop offset="1" stop-color="#660000" stop-opacity="1"/>
    </linearGradient>
    <linearGradient id="grad_4" y2="1" x2="0">
      <stop offset="0" stop-color="#990000" stop-opacity="1"/>
      <stop offset="1" stop-color="#660000" stop-opacity="1"/>
    </linearGradient>
  <linearGradient id="grad_1-.9999754428863525,-0.007050676736980677,0.007050676736980677,0.9999754428863525,-210.95,-161.45" y2="23.1049" x2="1.6898" x1="1.5412" y1="2.0328" gradientUnits="userSpaceOnUse">
      <stop offset="0" stop-color="#E5E5E5" stop-opacity="1"/>
      <stop offset="1" stop-color="#CCCCCC" stop-opacity="1"/>
    </linearGradient><linearGradient id="grad_3-0.0041019972413778305,0.999991774559021,-0.999991774559021,-0.0041019972413778305,223.95,-186.55" y2="8.9326" x2="48.6466" x1="52.7966" y1="8.9496" gradientUnits="userSpaceOnUse">
      <stop offset="0" stop-color="#990000" stop-opacity="1"/>
      <stop offset="1" stop-color="#660000" stop-opacity="1"/>
    </linearGradient><linearGradient id="grad_4-0.0041019972413778305,0.999991774559021,-0.999991774559021,-0.0041019972413778305,213.45,-185.85" y2="8.342" x2="40.4519" x1="44.7019" y1="8.3595" gradientUnits="userSpaceOnUse">
      <stop offset="0" stop-color="#990000" stop-opacity="1"/>
      <stop offset="1" stop-color="#660000" stop-opacity="1"/>
    </linearGradient></defs>
  <!-- Exported by Scratch - http://scratch.mit.edu/ -->
  <g id="ID0.6030638604424894">
    <path id="ID0.7005448970012367" fill="url(#grad_1-.9999754428863525,-0.007050676736980677,0.007050676736980677,0.9999754428863525,-210.95,-161.45)" stroke="url(#grad_2)" stroke-width="2.000000598418117" stroke-linecap="round" d="M 13.1128 2.6743 C 18.6558 1.8032 24.3742 1.5459 29.9617 2.4555 C 35.249 3.4693 39.6464 7.7724 45.2036 8.3482 C 52.3641 9.0907 59.6487 5.1813 66.7408 6.4463 C 69.6385 6.9639 72.5581 10.1634 72.4872 13.006 C 72.3555 16.038 69.1749 19.0855 66.2828 19.4999 C 59.3993 20.4524 52.5015 16.384 45.5146 16.9962 C 39.6441 17.5096 34.6085 21.8433 28.8545 22.7138 C 23.2749 23.3502 17.6092 22.5661 12.1451 21.4316 C 8.793 20.7342 5.3098 19.7208 2.7674 17.5477 C 1.4226 16.2941 1.5989 13.9298 1.6797 12.2052 C 1.7712 10.2865 1.6972 7.873 3.2406 6.644 C 5.9085 4.3622 9.5387 3.2365 13.1128 2.6743 Z "/>
    <path id="ID0.5328910653479397" fill="url(#grad_3-0.0041019972413778305,0.999991774559021,-0.999991774559021,-0.0041019972413778305,223.95,-186.55)" stroke="none" stroke-linecap="round" d="M 52.7966 8.9496 L 52.6148 16.6989 L 48.6171 16.1325 L 48.694 9.5828 L 52.7966 8.9496 Z " stroke-width="1.0000001877835165"/>
    <path id="ID0.5328910653479397" fill="url(#grad_4-0.0041019972413778305,0.999991774559021,-0.999991774559021,-0.0041019972413778305,213.45,-185.85)" stroke="none" stroke-linecap="round" d="M 40.4519 8.342 L 44.697 9.5595 L 44.6193 16.3092 L 40.4146 17.442 L 40.4519 8.342 Z " stroke-width="1.0000001877835165"/>
  </g>
  <text id="ID0.48535970970988274" fill="#666666" text-anchor="start" font-family="Serif" font-size="22" transform="matrix(0.380876, 0, 0, 0.380876, 13.6618, 5.6265)" stroke-width="1" alignment-baseline="text-before-edge" xml:space="preserve"><tspan x="0" style="white-space: pre" dy="1.25em">CREDITS</tspan></text>
  <text id="ID0.48535970970988274" fill="#000000" text-anchor="start" font-family="Serif" font-size="22" transform="matrix(0.380876, 0, 0, 0.380876, 13.5618, 5.2765)" stroke-width="1" alignment-baseline="text-before-edge" xml:space="preserve"><tspan x="0" style="white-space: pre" dy="1.25em">CREDITS</tspan></text>
</svg>